<!DOCTYPE svg PUBLIC "-//W3C//DTD SVG 20010904//EN" "http://www.w3.org/TR/2001/REC-SVG-20010904/DTD/svg10.dtd">
<svg version="1.0" xmlns="http://www.w3.org/2000/svg" width="396px" height="308px" viewBox="0 0 3960 3080" preserveAspectRatio="xMidYMid meet">

 <path d="M1180 2710 l0 -160 -160 0 -160 0 0 -320 0 -320 -160 0 -160 0 0 320 0 320 -160 0 -160 0 0 -480 0 -480 160 0 160 0 0 -160 0 -160 160 0 160 0 0 -160 0 -160 160 0 160 0 0 -160 0 -160 -160 0 -160 0 0 -160 0 -160 160 0 160 0 0 160 0 160 160 0 160 0 0 160 0 160 480 0 480 0 0 -160 0 -160 160 0 160 0 0 -160 0 -160 160 0 160 0 0 160 0 160 -160 0 -160 0 0 160 0 160 160 0 160 0 0 160 0 160 160 0 160 0 0 160 0 160 160 0 160 0 0 480 0 480 -160 0 -160 0 0 -320 0 -320 -160 0 -160 0 0 320 0 320 -160 0 -160 0 0 160 0 160 -320 0 -320 0 0 -160 0 -160 320 0 320 0 0 -160 0 -160 -800 0 -800 0 0 160 0 160 320 0 320 0 0 160 0 160 -320 0 -320 0 0 -160z m320 -1280 l0 -160 -160 0 -160 0 0 160 0 160 160 0 160 0 0 -160z m1280 0 l0 -160 -160 0 -160 0 0 160 0 160 160 0 160 0 0 -160z"/>


</svg>