<!DOCTYPE svg PUBLIC "-//W3C//DTD SVG 20010904//EN" "http://www.w3.org/TR/2001/REC-SVG-20010904/DTD/svg10.dtd">
<svg version="1.0" xmlns="http://www.w3.org/2000/svg" width="532px" height="307px" viewBox="0 0 5320 3070" preserveAspectRatio="xMidYMid meet">
<g id="layer101" fill="#000000" stroke="none">
 <path d="M870 2650 l0 -160 160 0 160 0 0 -160 0 -160 160 0 160 0 0 -160 0 -160 160 0 160 0 0 160 0 160 -160 0 -160 0 0 160 0 160 -160 0 -160 0 0 160 0 160 -160 0 -160 0 0 -160z"/>
 <path d="M1830 2650 l0 -160 160 0 160 0 0 -160 0 -160 160 0 160 0 0 160 0 160 -160 0 -160 0 0 160 0 160 -160 0 -160 0 0 -160z"/>
 <path d="M3110 2650 l0 -160 -160 0 -160 0 0 -160 0 -160 160 0 160 0 0 160 0 160 160 0 160 0 0 160 0 160 -160 0 -160 0 0 -160z"/>
 <path d="M4070 2650 l0 -160 -160 0 -160 0 0 -160 0 -160 -160 0 -160 0 0 -160 0 -160 160 0 160 0 0 160 0 160 160 0 160 0 0 160 0 160 160 0 160 0 0 160 0 160 -160 0 -160 0 0 -160z"/>
 <path d="M1510 1370 l0 -160 -160 0 -160 0 0 -160 0 -160 -160 0 -160 0 0 -160 0 -160 160 0 160 0 0 160 0 160 160 0 160 0 0 160 0 160 160 0 160 0 0 160 0 160 -160 0 -160 0 0 -160z"/>
 <path d="M3430 1370 l0 -160 160 0 160 0 0 -160 0 -160 160 0 160 0 0 -160 0 -160 160 0 160 0 0 160 0 160 -160 0 -160 0 0 160 0 160 -160 0 -160 0 0 160 0 160 -160 0 -160 0 0 -160z"/>
 <path d="M2150 730 l0 -160 -160 0 -160 0 0 -160 0 -160 160 0 160 0 0 160 0 160 160 0 160 0 0 160 0 160 -160 0 -160 0 0 -160z"/>
 <path d="M2790 730 l0 -160 160 0 160 0 0 -160 0 -160 160 0 160 0 0 160 0 160 -160 0 -160 0 0 160 0 160 -160 0 -160 0 0 -160z"/>
 </g>

</svg>