<!DOCTYPE svg PUBLIC "-//W3C//DTD SVG 20010904//EN" "http://www.w3.org/TR/2001/REC-SVG-20010904/DTD/svg10.dtd">
<svg version="1.0" xmlns="http://www.w3.org/2000/svg" width="466px" height="345px" viewBox="0 0 4660 3450" preserveAspectRatio="xMidYMid meet">

 <path d="M1040 2990 l0 -160 -160 0 -160 0 0 -160 0 -160 160 0 160 0 0 -160 0 -160 -320 0 -320 0 0 -480 0 -480 160 0 160 0 0 -160 0 -160 480 0 480 0 0 -160 0 -160 640 0 640 0 0 160 0 160 480 0 480 0 0 160 0 160 160 0 160 0 0 480 0 480 -320 0 -320 0 0 160 0 160 160 0 160 0 0 160 0 160 -160 0 -160 0 0 160 0 160 -320 0 -320 0 0 -160 0 -160 160 0 160 0 0 -160 0 -160 -320 0 -320 0 0 160 0 160 -320 0 -320 0 0 -160 0 -160 -320 0 -320 0 0 160 0 160 160 0 160 0 0 160 0 160 -320 0 -320 0 0 -160z m1600 -640 l0 -160 -320 0 -320 0 0 160 0 160 320 0 320 0 0 -160z m-640 -640 l0 -160 -320 0 -320 0 0 160 0 160 320 0 320 0 0 -160z m1280 0 l0 -160 -320 0 -320 0 0 160 0 160 320 0 320 0 0 -160z"/>

</svg>