<!DOCTYPE svg PUBLIC "-//W3C//DTD SVG 20010904//EN" "http://www.w3.org/TR/2001/REC-SVG-20010904/DTD/svg10.dtd">
<svg version="1.0" xmlns="http://www.w3.org/2000/svg" width="457px" height="323px" viewBox="0 0 4570 3230" preserveAspectRatio="xMidYMid meet">

 <path d="M860 2680 l0 -160 160 0 160 0 0 -160 0 -160 -160 0 -160 0 0 -160 0 -160 -160 0 -160 0 0 -640 0 -640 160 0 160 0 0 480 0 480 160 0 160 0 0 -320 0 -320 160 0 160 0 0 -160 0 -160 -160 0 -160 0 0 -160 0 -160 160 0 160 0 0 160 0 160 160 0 160 0 0 160 0 160 480 0 480 0 0 -160 0 -160 160 0 160 0 0 -160 0 -160 160 0 160 0 0 160 0 160 -160 0 -160 0 0 160 0 160 160 0 160 0 0 160 0 160 160 0 160 0 0 -320 0 -320 160 0 160 0 0 640 0 640 -160 0 -160 0 0 160 0 160 -160 0 -160 0 0 160 0 160 160 0 160 0 0 160 0 160 -160 0 -160 0 0 -160 0 -160 -160 0 -160 0 0 -160 0 -160 -800 0 -800 0 0 160 0 160 -160 0 -160 0 0 160 0 160 -160 0 -160 0 0 -160z m960 -1280 l0 -160 -160 0 -160 0 0 160 0 160 160 0 160 0 0 -160z m1280 0 l0 -160 -160 0 -160 0 0 160 0 160 160 0 160 0 0 -160z"/>

</svg>