<!DOCTYPE svg PUBLIC "-//W3C//DTD SVG 20010904//EN" "http://www.w3.org/TR/2001/REC-SVG-20010904/DTD/svg10.dtd">
<svg version="1.0" xmlns="http://www.w3.org/2000/svg" width="376px" height="332px" viewBox="0 0 3760 3320" preserveAspectRatio="xMidYMid meet">
 <path d="M1240 2680 l0 -160 -160 0 -160 0 0 -160 0 -160 160 0 160 0 0 -160 0 -160 -320 0 -320 0 0 -320 0 -320 160 0 160 0 0 -160 0 -160 160 0 160 0 0 -160 0 -160 160 0 160 0 0 -160 0 -160 320 0 320 0 0 160 0 160 160 0 160 0 0 160 0 160 160 0 160 0 0 160 0 160 160 0 160 0 0 320 0 320 -320 0 -320 0 0 160 0 160 160 0 160 0 0 160 0 160 -160 0 -160 0 0 160 0 160 -160 0 -160 0 0 -160 0 -160 160 0 160 0 0 -160 0 -160 -160 0 -160 0 0 -160 0 -160 -320 0 -320 0 0 160 0 160 -160 0 -160 0 0 160 0 160 160 0 160 0 0 160 0 160 -160 0 -160 0 0 -160z m320 -1280 l0 -160 -160 0 -160 0 0 160 0 160 160 0 160 0 0 -160z m960 0 l0 -160 -160 0 -160 0 0 160 0 160 160 0 160 0 0 -160z"/>

</svg>