<!DOCTYPE svg PUBLIC "-//W3C//DTD SVG 20010904//EN" "http://www.w3.org/TR/2001/REC-SVG-20010904/DTD/svg10.dtd">
<svg version="1.0" xmlns="http://www.w3.org/2000/svg" width="555px" height="320px" viewBox="0 0 5550 3200" preserveAspectRatio="xMidYMid meet">
<g id="layer101" fill="#000000" stroke="none">
 <path d="M710 2680 l0 -160 160 0 160 0 0 -160 0 -160 320 0 320 0 0 -160 0 -160 160 0 160 0 0 160 0 160 160 0 160 0 0 -320 0 -320 -160 0 -160 0 0 -320 0 -320 160 0 160 0 0 320 0 320 320 0 320 0 0 320 0 320 160 0 160 0 0 -320 0 -320 320 0 320 0 0 160 0 160 160 0 160 0 0 320 0 320 160 0 160 0 0 160 0 160 -160 0 -160 0 0 -160 0 -160 -160 0 -160 0 0 160 0 160 -1600 0 -1600 0 0 -160z m3200 -480 l0 -320 -160 0 -160 0 0 320 0 320 160 0 160 0 0 -320z"/>
 <path d="M4870 2680 l0 -160 160 0 160 0 0 160 0 160 -160 0 -160 0 0 -160z"/>
 <path d="M390 2040 l0 -160 160 0 160 0 0 160 0 160 -160 0 -160 0 0 -160z"/>
 <path d="M1030 1720 l0 -160 160 0 160 0 0 160 0 160 -160 0 -160 0 0 -160z"/>
 <path d="M2630 1080 l0 -160 160 0 160 0 0 160 0 160 -160 0 -160 0 0 -160z"/>
 <path d="M3270 1080 l0 -160 160 0 160 0 0 160 0 160 -160 0 -160 0 0 -160z"/>
 <path d="M1990 440 l0 -160 160 0 160 0 0 160 0 160 -160 0 -160 0 0 -160z"/>
 </g>

</svg>