<!DOCTYPE svg PUBLIC "-//W3C//DTD SVG 20010904//EN" "http://www.w3.org/TR/2001/REC-SVG-20010904/DTD/svg10.dtd">
<svg version="1.0" xmlns="http://www.w3.org/2000/svg" width="619px" height="357px" viewBox="0 0 6190 3570" preserveAspectRatio="xMidYMid meet">
<g id="layer101" fill="#000000" stroke="none">
 <path d="M1590 2660 l0 -160 -160 0 -160 0 0 -160 0 -160 -320 0 -320 0 0 -160 0 -160 160 0 160 0 0 -160 0 -160 160 0 160 0 0 -160 0 -160 160 0 160 0 0 -160 0 -160 320 0 320 0 0 -160 0 -160 960 0 960 0 0 160 0 160 320 0 320 0 0 160 0 160 160 0 160 0 0 160 0 160 160 0 160 0 0 160 0 160 160 0 160 0 0 160 0 160 -320 0 -320 0 0 160 0 160 -160 0 -160 0 0 160 0 160 -160 0 -160 0 0 -160 0 -160 -160 0 -160 0 0 -160 0 -160 -320 0 -320 0 0 160 0 160 -320 0 -320 0 0 -160 0 -160 -320 0 -320 0 0 160 0 160 -160 0 -160 0 0 160 0 160 -160 0 -160 0 0 -160z m320 -960 l0 -160 -160 0 -160 0 0 160 0 160 160 0 160 0 0 -160z m960 0 l0 -160 -160 0 -160 0 0 160 0 160 160 0 160 0 0 -160z m960 0 l0 -160 -160 0 -160 0 0 160 0 160 160 0 160 0 0 -160z m960 0 l0 -160 -160 0 -160 0 0 160 0 160 160 0 160 0 0 -160z"/>
 </g>

</svg>